# xmcd
#
# Track frame offsets:
#	150
#	27781
#	43648
#	72800
#	100625
#	152678
#	178788
#
# Disc length: 2804 seconds
#
# Revision: 1
# Processed by: cddbd v1.5.1PL2 Copyright (c) Steve Scherf et al.
# Submitted via: EasyCDDAExtractor 9.0.0.1
#
DISCID=4d0af207
DTITLE=James Gang - Beachland Ballroom Cleveland 24-06-05 Disc 2
DYEAR=2005
DGENRE=Hard Rock
TTITLE0=The Ashes The Rain And I
TTITLE1=Ashton Park
TTITLE2=Tend My Garden
TTITLE3=Walk Away
TTITLE4=Lost Woman
TTITLE5=Going Down
TTITLE6=Rocky Mountain Way
EXTD=
EXTT0=
EXTT1=
EXTT2=
EXTT3=
EXTT4=
EXTT5=
EXTT6=
PLAYORDER=
